# xmcd
#
# Track frame offsets: 
#        150
#        11364
#        22615
#        35738
#        45674
#        63497
#        76124
#        87334
#        102501
#        132799
#        150162
#        167738
#        188406
#        203494
#        220840
#        232842
#        242522
#        257805
#        270491
#        291012
#
# Disc length: 4043 seconds
#
# Revision: 1
# Processed by: cddbd v1.5.1PL2 Copyright (c) Steve Scherf et al.
# Submitted via: ExactAudioCopy v0.95b3
#
DISCID=f00fc914
DTITLE=John Mayall and the Bluesbreakers with Eric Clapton - Bluesbreaki
DTITLE=ng!
DYEAR=2004
DGENRE=Blues
TTITLE0=Crawling Up a Hill
TTITLE1=Crocodile Walk
TTITLE2=Bye Bye Bird
TTITLE3=I'm Your Witchdoctor
TTITLE4=Telephone Blues
TTITLE5=On Top of the World
TTITLE6=Maudie
TTITLE7=It Hurts to Be in Love
TTITLE8=Have You Ever Loved a Woman
TTITLE9=Bye Bye Bird
TTITLE10=Hoochie Coochie Man
TTITLE11=Stormy Monday
TTITLE12=Lonely Years
TTITLE13=Bernard Jenkins
TTITLE14=On Top of the World
TTITLE15=Key to Love
TTITLE16=Hideaway (Previously Unreleased)
TTITLE17=Little Girl (Previously Unreleased)
TTITLE18=Tears in My Eyes (Previously Unreleased)
TTITLE19=Parchman Farm (Previously Unrealeased)
EXTD=
EXTT0=
EXTT1=
EXTT2=
EXTT3=
EXTT4=
EXTT5=
EXTT6=
EXTT7=
EXTT8=
EXTT9=
EXTT10=
EXTT11=
EXTT12=
EXTT13=
EXTT14=
EXTT15=
EXTT16=
EXTT17=
EXTT18=
EXTT19=
PLAYORDER=
